<svg width="109" height="33" viewBox="0 0 109 33" fill="none" xmlns="http://www.w3.org/2000/svg">
<path d="M9.5625 3.8125H9.1875C7.29167 3.8125 5.86458 4.24479 4.90625 5.10938C3.75 6.15104 3.17188 7.875 3.17188 10.2812C3.17188 10.9479 3.24479 11.4792 3.39062 11.875C3.43229 12.0104 3.48438 12.1302 3.54688 12.2344C3.58854 12.3073 3.60938 12.3802 3.60938 12.4531C2.45312 12.4531 1.60938 12.224 1.07812 11.7656C0.484375 11.2656 0.1875 10.4635 0.1875 9.35938C0.1875 8.25521 0.390625 7.20833 0.796875 6.21875C1.21354 5.21875 1.84375 4.34375 2.6875 3.59375C3.59375 2.78125 4.74479 2.15104 6.14062 1.70312C7.54688 1.25521 9.20312 1.03125 11.1094 1.03125C12.2031 1.03125 13.25 1.09375 14.25 1.21875C14.5625 1.25 14.9688 1.30729 15.4688 1.39062C16.3021 1.54688 17.1042 1.65104 17.875 1.70312C18.25 1.74479 18.724 1.76562 19.2969 1.76562C20.0052 1.76562 20.6823 1.70312 21.3281 1.57812C21.974 1.45312 22.5365 1.29167 23.0156 1.09375C22.9635 2.48958 22.6042 3.51562 21.9375 4.17188C21.2812 4.82812 20.3073 5.15625 19.0156 5.15625C18.3177 5.15625 17.6146 5.09896 16.9062 4.98438C16.1979 4.86979 15.2448 4.69271 14.0469 4.45312L9.625 25H5.03125L9.5625 3.8125ZM17.5781 9H22.1875L21.7812 10.9844C22.5104 10.3385 23.1042 9.88021 23.5625 9.60938C24.2708 9.20312 24.9635 9 25.6406 9C26.3281 9 26.8802 9.24479 27.2969 9.73438C27.4844 9.95312 27.625 10.2083 27.7188 10.5C27.8125 10.7812 27.8594 11.0833 27.8594 11.4062C27.8594 11.6979 27.8125 11.9792 27.7188 12.25C27.625 12.5208 27.4844 12.7656 27.2969 12.9844C27.0885 13.2135 26.8333 13.3958 26.5312 13.5312C26.2396 13.6667 25.9115 13.7344 25.5469 13.7344C25.2656 13.7344 25.0417 13.6875 24.875 13.5938C24.7083 13.5 24.5781 13.3646 24.4844 13.1875C24.401 13.0104 24.3438 12.8385 24.3125 12.6719C24.2188 12.224 24.125 11.9271 24.0312 11.7812C23.9583 11.6771 23.8438 11.625 23.6875 11.625C23.2396 11.625 22.8594 11.7188 22.5469 11.9062C22.2344 12.0938 21.8385 12.4062 21.3594 12.8438L18.7969 25H14.1875L17.5781 9ZM32.7812 7.26562C32.4375 7.26562 32.1094 7.20312 31.7969 7.07812C31.4844 6.94271 31.2135 6.76042 30.9844 6.53125C30.7552 6.3125 30.5729 6.04688 30.4375 5.73438C30.3125 5.42188 30.25 5.09375 30.25 4.75C30.25 4.40625 30.3125 4.07812 30.4375 3.76562C30.5729 3.45312 30.7552 3.17708 30.9844 2.9375C31.2135 2.69792 31.4844 2.51562 31.7969 2.39062C32.1094 2.25521 32.4375 2.1875 32.7812 2.1875C33.125 2.1875 33.4531 2.25521 33.7656 2.39062C34.0781 2.51562 34.3542 2.69792 34.5938 2.9375C34.8333 3.17708 35.0156 3.45312 35.1406 3.76562C35.276 4.07812 35.3438 4.40625 35.3438 4.75C35.3438 5.09375 35.276 5.42188 35.1406 5.73438C35.0156 6.04688 34.8333 6.3125 34.5938 6.53125C34.3542 6.76042 34.0781 6.94271 33.7656 7.07812C33.4531 7.20312 33.125 7.26562 32.7812 7.26562ZM30.6094 25.1875C29.5885 25.1875 28.7812 24.8854 28.1875 24.2812C27.5208 23.6146 27.1875 22.6406 27.1875 21.3594C27.1875 20.7552 27.2708 20.0573 27.4375 19.2656L29.6094 9H34.2188L31.9219 19.875C31.8385 20.1458 31.7969 20.4896 31.7969 20.9062C31.7969 21.3438 31.8958 21.651 32.0938 21.8281C32.3021 22.0052 32.6354 22.0938 33.0938 22.0938C33.4062 22.0938 33.7083 22.026 34 21.8906C34.3021 21.7448 34.5781 21.5469 34.8281 21.2969C35.3385 20.7865 35.724 20.1094 35.9844 19.2656H37.3281C36.7552 20.8802 36.0365 22.1667 35.1719 23.125C34.4427 23.9062 33.6198 24.4688 32.7031 24.8125C32.0365 25.0625 31.3385 25.1875 30.6094 25.1875ZM38.4375 7.8125H43.0469L42.5312 10.2188C43.6146 9.30208 44.8594 8.84375 46.2656 8.84375C47.4635 8.84375 48.3906 9.20833 49.0469 9.9375C49.7969 10.7917 50.1719 12.1094 50.1719 13.8906C50.1719 15.6094 49.9531 17.224 49.5156 18.7344C48.9635 20.6615 48.1615 22.1562 47.1094 23.2188C45.8177 24.5312 44.2135 25.1875 42.2969 25.1875C41.5573 25.1875 40.9479 25.0729 40.4688 24.8438C40.1042 24.6771 39.8073 24.4115 39.5781 24.0469L37.9219 31.8438L33.0938 33L38.4375 7.8125ZM41.3125 22.4062C42.3438 22.4062 43.2292 21.8802 43.9688 20.8281C44.5521 20.0052 45.0208 18.849 45.375 17.3594C45.6562 16.1615 45.7969 14.974 45.7969 13.7969C45.7969 12.7448 45.6042 11.9948 45.2188 11.5469C44.9688 11.276 44.625 11.1406 44.1875 11.1406C43.8021 11.1406 43.4115 11.276 43.0156 11.5469C42.6198 11.8177 42.276 12.2083 41.9844 12.7188L40.0938 21.6719C40.1667 21.8802 40.3021 22.0573 40.5 22.2031C40.7083 22.3385 40.9792 22.4062 41.3125 22.4062ZM58.7344 3.07812C57.2656 3.59896 56.1562 4.40625 55.4062 5.5C54.6667 6.58333 54.2969 7.91146 54.2969 9.48438C54.2969 10.1719 54.3698 10.8021 54.5156 11.375C54.6719 11.9375 54.8854 12.3958 55.1562 12.75C53.7812 12.75 52.7708 12.474 52.125 11.9219C51.4792 11.3594 51.1562 10.4792 51.1562 9.28125C51.1562 7.80208 51.6042 6.40104 52.5 5.07812C53.3542 3.81771 54.5156 2.80208 55.9844 2.03125C57.4948 1.26042 59.125 0.875 60.875 0.875C61.3646 0.875 61.7917 0.911458 62.1562 0.984375C62.5312 1.04688 62.9479 1.15625 63.4062 1.3125L67.2656 18.4375L70.8438 1.0625H73.9531L68.7344 25H64.3125L60.6094 9.125L56.9531 25H53.9219L58.7344 3.07812ZM77.0156 25.125C75.4323 25.125 74.2083 24.7396 73.3438 23.9688C72.375 23.1146 71.8906 21.8177 71.8906 20.0781C71.8906 19.4219 71.9583 18.6979 72.0938 17.9062C72.2292 17.1042 72.4375 16.2969 72.7188 15.4844C73.3646 13.5469 74.2865 12 75.4844 10.8438C76.9323 9.42708 78.6562 8.71875 80.6562 8.71875C83.3958 8.71875 84.7656 10.4219 84.7656 13.8281V13.8594C84.8281 13.8802 84.8802 13.8906 84.9219 13.8906H85.1094C85.8177 13.8906 86.6562 13.6927 87.625 13.2969C88.4792 12.9427 89.2865 12.5 90.0469 11.9688L90.3281 12.8438C89.7031 13.5 88.8958 14.0573 87.9062 14.5156C86.9271 14.974 85.8438 15.3021 84.6562 15.5C84.5312 16.9479 84.25 18.2708 83.8125 19.4688C83.375 20.6562 82.8125 21.6771 82.125 22.5312C81.4479 23.3646 80.6719 24.0052 79.7969 24.4531C78.9219 24.901 77.9948 25.125 77.0156 25.125ZM78.2969 22.25C78.6719 22.25 79.0521 22.0833 79.4375 21.75C79.8333 21.4062 80.2031 20.9323 80.5469 20.3281C80.8906 19.724 81.1875 19.0156 81.4375 18.2031C81.6875 17.3906 81.875 16.5208 82 15.5938C81.6875 15.5104 81.4635 15.3542 81.3281 15.125C81.2031 14.8958 81.1406 14.6042 81.1406 14.25C81.1406 13.8125 81.2292 13.4479 81.4062 13.1562C81.5833 12.8646 81.8281 12.651 82.1406 12.5156C82.099 11.8385 81.9896 11.3542 81.8125 11.0625C81.7188 10.9167 81.599 10.8125 81.4531 10.75C81.3177 10.6875 81.1406 10.6562 80.9219 10.6562C80.2031 10.6562 79.5 11.1979 78.8125 12.2812C78.1771 13.2604 77.6562 14.4688 77.25 15.9062C76.8542 17.3125 76.6562 18.5625 76.6562 19.6562C76.6562 20.1875 76.6823 20.6198 76.7344 20.9531C76.7969 21.2865 76.8958 21.5469 77.0312 21.7344C77.1562 21.9219 77.3177 22.0573 77.5156 22.1406C77.7135 22.2135 77.974 22.25 78.2969 22.25ZM89.5781 25.1875C88.5573 25.1875 87.75 24.8854 87.1562 24.2812C86.4896 23.6146 86.1562 22.6406 86.1562 21.3594C86.1562 20.7552 86.2396 20.0573 86.4062 19.2656L88.3281 10.2812H87.2656L87.5312 9H88.5781L89.5469 4.57812L94.2812 3.9375L93.1875 9H95.1094L94.8594 10.2812H92.9375L90.8906 19.875C90.8073 20.1458 90.7656 20.4896 90.7656 20.9062C90.7656 21.3438 90.8646 21.651 91.0625 21.8281C91.2708 22.0052 91.6042 22.0938 92.0625 22.0938C92.375 22.0938 92.6771 22.026 92.9688 21.8906C93.2708 21.7448 93.5469 21.5469 93.7969 21.2969C94.3073 20.7865 94.6927 20.1094 94.9531 19.2656H96.2969C95.724 20.8802 95.0052 22.1667 94.1406 23.125C93.4115 23.9062 92.5885 24.4688 91.6719 24.8125C91.0052 25.0625 90.3073 25.1875 89.5781 25.1875ZM99.5469 25.1875C97.974 25.1875 96.7604 24.7917 95.9062 24C95 23.1562 94.5469 21.8594 94.5469 20.1094C94.5469 19.4531 94.6146 18.724 94.75 17.9219C94.875 17.1198 95.0677 16.3177 95.3281 15.5156C95.6198 14.6198 95.9896 13.7708 96.4375 12.9688C96.8958 12.1667 97.4271 11.4583 98.0312 10.8438C99.4271 9.42708 101.146 8.71875 103.188 8.71875C104.49 8.71875 105.438 9.03125 106.031 9.65625C106.49 10.1458 106.719 10.8542 106.719 11.7812C106.719 12.6875 106.521 13.5417 106.125 14.3438C105.729 15.1354 105.182 15.8385 104.484 16.4531C103.786 17.0573 102.995 17.5417 102.109 17.9062C101.224 18.2604 100.307 18.4688 99.3594 18.5312C99.3073 19.0729 99.2812 19.5 99.2812 19.8125C99.2812 20.8542 99.4792 21.5729 99.875 21.9688C100.219 22.3229 100.792 22.5 101.594 22.5C102.75 22.5 103.807 22.1875 104.766 21.5625C105.172 21.3021 105.562 20.9948 105.938 20.6406C106.312 20.276 106.75 19.8177 107.25 19.2656H108.344C107.333 20.974 106.172 22.3333 104.859 23.3438C103.245 24.5729 101.474 25.1875 99.5469 25.1875ZM99.6094 17C100.203 16.9583 100.781 16.7865 101.344 16.4844C101.906 16.1823 102.406 15.7865 102.844 15.2969C103.281 14.7969 103.625 14.2396 103.875 13.625C104.125 13 104.25 12.3646 104.25 11.7188C104.25 11.2917 104.188 10.9688 104.062 10.75C103.948 10.5208 103.745 10.4062 103.453 10.4062C103.068 10.4062 102.677 10.5938 102.281 10.9688C101.896 11.3438 101.521 11.8594 101.156 12.5156C100.823 13.1302 100.521 13.8281 100.25 14.6094C99.9792 15.3906 99.7656 16.1875 99.6094 17Z" fill="#DD68C3"/>
</svg>
